<?xml version="1.0" ?><!DOCTYPE svg  PUBLIC '-//W3C//DTD SVG 1.1//EN'  'http://www.w3.org/Graphics/SVG/1.1/DTD/svg11.dtd'><svg height="80px" id="Layer_1" style="enable-background:new 0 0 80 80;" version="1.1" viewBox="0 0 80 80" width="80px" xml:space="preserve" xmlns="http://www.w3.org/2000/svg" xmlns:xlink="http://www.w3.org/1999/xlink"><style type="text/css">
	.st0{fill:#1C2B36;}
</style><path class="st0" d="M52.5,17.2c-1.3-0.1-2.5-0.5-3.5-1.4c-1.2-1-1.9-2.4-2-4c0-0.3,0.2-0.5,0.5-0.6c0.3,0,0.5,0.2,0.6,0.5  c0.1,1.3,0.7,2.4,1.7,3.3c0.8,0.7,1.8,1.1,2.8,1.1c0-2.8-0.6-6.5-1.9-7.9c0-1.2,0-2.3-0.3-2.6c-0.3-0.2-1.8,0.3-4.4,1.1l0.7,2.5  l-1,0.3L44.9,7c-0.7,0.2-1.5,0.4-2.3,0.7c-0.7,0.2-3,0.3-3.3,0.3c-2.3,0-4.2-0.2-6.1-0.4l-0.3,2.7l-1-0.1l0.3-2.7  c-1.2-0.1-2.5-0.2-3.9-0.3c-1,0,0.2,3.4-0.4,3.7c-0.4,0.2-0.5,3.6-0.3,6.8c2.2-0.2,4.1-2.2,4.4-4.8c0-0.3,0.3-0.5,0.6-0.5  c0.3,0,0.5,0.3,0.5,0.6c-0.4,3.1-2.7,5.5-5.4,5.8c0.1,1.2,0.2,2.2,0.4,3c0.6,3.1,5.6,19.5,5.2,20.9c-0.4,1.3-2.2,7.1-2,12.2  c0.2,5.1-2.1,16.7-1.8,17.8c0.6,1.4,6,1.8,8.4,0.6c5.4,3.1,7.8-0.5,9.1-2.4c0-1.3,0.5-7.1,1-12.7c0.5-7-1.1-13.8-1.2-15  c-0.3-2,5.1-19.1,5.6-25.4C52.4,17.5,52.5,17.3,52.5,17.2z M39.8,8.4c0.6,0,1.1,0.5,1.1,1.1c0,0.6-0.5,1.1-1.1,1.1  c-0.6,0-1.1-0.5-1.1-1.1C38.7,8.9,39.2,8.4,39.8,8.4z M38.6,68.3c-0.2-2.2-0.4-4.6-0.4-5.2c-0.1-2,0.6-8.8,0.4-11.1  c-0.1-1.1,0.7-3.1,1.3-5.3c0,0.2,0,0.4,0,0.6c0.4,3,0.7,12.2,0.7,12.2C40.3,62.4,39.3,65.5,38.6,68.3z M40.6,39.5  c0-0.2-0.1-0.3-0.1-0.5c-1.2-5.3-1.5-18-0.4-18.3c1.5-0.4,0.4,10.1,0.8,15.2C40.8,36.9,40.7,38.2,40.6,39.5z"/></svg>