<?xml version="1.0" ?><!DOCTYPE svg  PUBLIC '-//W3C//DTD SVG 1.1//EN'  'http://www.w3.org/Graphics/SVG/1.1/DTD/svg11.dtd'><svg height="80px" id="Layer_1" style="enable-background:new 0 0 80 80;" version="1.1" viewBox="0 0 80 80" width="80px" xml:space="preserve" xmlns="http://www.w3.org/2000/svg" xmlns:xlink="http://www.w3.org/1999/xlink"><style type="text/css">
	.st0{fill:#1C2B36;}
</style><path class="st0" d="M57.7,51.4c0.1,4.8,0.2,9.7,0.2,9.7c2.4,0.5,4-0.1,4-0.1s-0.2-6.6,0.2-11.2c0.2-2.6,1-6.9,1.7-10.2  c-0.5,0.6-0.9,1.2-1.3,1.7C60.7,43.7,59.1,47.4,57.7,51.4z M69.8,24.9c-0.7-3.3-4.9-13.4-7.7-16.4c-0.6-0.6-2.4-0.6-3.3,0  c-2.4,1.4-5.1,2.6-13,15c-9,14.1-10.7,26.4-32.3,35.4c-5.5,2.3-2.6,9.8-2.6,9.8s10.6,4.4,32.5,2.8c5.3-0.4,7.7-3.1,8.6-5.4  c2.5-6.3,5.4-21,10-26.1C65.3,36.3,70.5,28.3,69.8,24.9z M54.6,37.2c-1,4.8-2,10.9-8.6,16.4c-5.8,4.9-21,1.1-19.6-0.2  c7-3.5,12.1-12.9,16.2-20.7c1.3-2.5,2.6-5.2,4.3-7.8C53.6,14.6,58.9,11,59.6,11c0.2,0,0.3,0,0.4,0C62.4,13.9,56.6,28.3,54.6,37.2z"/></svg>