<?xml version="1.0" ?><!DOCTYPE svg  PUBLIC '-//W3C//DTD SVG 1.1//EN'  'http://www.w3.org/Graphics/SVG/1.1/DTD/svg11.dtd'><svg height="80px" id="Layer_1" style="enable-background:new 0 0 80 80;" version="1.1" viewBox="0 0 80 80" width="80px" xml:space="preserve" xmlns="http://www.w3.org/2000/svg" xmlns:xlink="http://www.w3.org/1999/xlink"><style type="text/css">
	.st0{fill:#1C2B36;}
</style><path class="st0" d="M64.4,18.2c-2-5.1-8.6-5.6-10.9-6.4c-0.4-0.1-1.5-0.6-1.6-0.6c-0.3-0.1-1.4,0.8-2,2.1c-1.5,3.2-4.7,6.1-9.9,6.2  c-5.2-0.1-8.4-3-9.9-6.2c-0.6-1.3-1.7-2.2-2-2.1c-0.1,0-1.2,0.4-1.6,0.6c-2.3,0.8-9,1.2-10.9,6.4c-1.1,2.9-3.8,6.7-6.6,10.3  c0.8,1.8,6.3,6.9,9,7.7c2.3-2,4.3-5.3,4.3-5.3c1.1,0.5-0.4,4.8-0.2,6.8c0.5,5.2,2.3,6.6,1.4,15.1c-0.6,5.7-2.4,11.5-1.9,12  c2.7,3,9.9,3.8,18.4,3.9c8.5-0.1,15.7-0.9,18.4-3.9c0.5-0.6-1.3-6.3-1.9-12c-0.9-8.5,0.9-9.9,1.4-15.1c0.2-2-1.3-6.3-0.2-6.8  c0,0,2,3.2,4.3,5.3c2.8-0.9,8.2-5.9,9-7.7C68.2,24.9,65.5,21.1,64.4,18.2z"/></svg>