<?xml version="1.0" ?><!DOCTYPE svg  PUBLIC '-//W3C//DTD SVG 1.1//EN'  'http://www.w3.org/Graphics/SVG/1.1/DTD/svg11.dtd'><svg height="80px" id="Layer_1" style="enable-background:new 0 0 80 80;" version="1.1" viewBox="0 0 80 80" width="80px" xml:space="preserve" xmlns="http://www.w3.org/2000/svg" xmlns:xlink="http://www.w3.org/1999/xlink"><style type="text/css">
	.st0{fill:#1C2B36;}
</style><path class="st0" d="M63.8,18.8c-1.1-1.4-9.4-2.5-13.7-5.8c0,0-0.6-0.2-1,0.3C47,16.4,44.9,19,40,19c-4.9,0-7-2.6-9.1-5.7  c-0.3-0.5-1-0.3-1-0.3c-4.3,3.2-12.6,4.4-13.7,5.8c-2.4,3.1-5.8,9.9-8.1,14.3c2.1,3.5,6.9,5.6,10.3,5.9c1.1-1.1,2.8-4.3,3.8-4.3  c0.5,0,1.5,3.4,1.5,10.7c0,5.5-1.8,16.6-1.8,20.1C26.2,67.1,35,67,40,67s13.8,0.1,18.1-1.5c0-3.5-1.8-14.6-1.8-20.1  c0-7.3,1-10.7,1.5-10.7c1,0,2.7,3.2,3.8,4.3c3.3-0.3,8.1-2.5,10.3-5.9C69.6,28.7,66.2,21.9,63.8,18.8z"/></svg>