<?xml version="1.0" ?><!DOCTYPE svg  PUBLIC '-//W3C//DTD SVG 1.1//EN'  'http://www.w3.org/Graphics/SVG/1.1/DTD/svg11.dtd'><svg height="80px" id="Layer_1" style="enable-background:new 0 0 80 80;" version="1.1" viewBox="0 0 80 80" width="80px" xml:space="preserve" xmlns="http://www.w3.org/2000/svg" xmlns:xlink="http://www.w3.org/1999/xlink"><style type="text/css">
	.st0{fill:#1C2B36;}
</style><path class="st0" d="M55.5,37.5c0-5.5-0.2-10.6-0.5-14.6c-1.3-0.6-4.6-2.1-5.9-2.7c-1.7-0.8-2.7-5.5-2.8-6c0-0.2,0.1-0.4,0.3-0.4  c0.2,0,0.4,0.1,0.4,0.3c0.4,1.9,1.3,5,2.3,5.5c1.1,0.6,4,1.8,5.5,2.5c-0.4-4.7-0.8-7.9-1.2-8.8c-0.1-0.3-0.2-0.4-0.4-0.6l-2.2-0.6h2  V8.5c0-0.1-0.3,0-0.5-0.4H27.3c-0.2,0.4-0.5,0.3-0.5,0.4v3.4h2l-2.2,0.6c-0.1,0.3-0.3,0.4-0.4,0.7c-0.3,0.9-0.8,4-1.2,8.7  c1.5-0.7,4.4-2,5.5-2.5c1-0.5,2-3.6,2.3-5.5c0-0.2,0.2-0.3,0.4-0.3c0.2,0,0.3,0.2,0.3,0.4c-0.1,0.5-1,5.2-2.8,6  c-1.3,0.6-4.6,2.1-5.9,2.7c-0.3,4-0.5,9.1-0.5,14.6c0,11.7-1.8,30.4-2.3,33c3,1.4,10.1,1.9,14.5,1c0.2-2.1,1.2-19.6,1.8-32.3  c0.2-5.5,0.8-10.5,1.5-11.1c0.7,0.6,1.3,5.6,1.5,11.1c0.6,12.7,1.6,30.2,1.8,32.3c4.4,0.9,11.5,0.4,14.5-1  C57.4,67.8,55.5,49.1,55.5,37.5z"/></svg>